/* XPM */
static char *dd74dff6e34a45b79983d8ac752e4d6bEuqQ4FmXsL8hjb4N[] = {
/* columns rows colors chars-per-pixel */
"64 64 7 1 ",
"  c None",
". c #3F3A3A",
"X c #565424",
"o c #6A6727",
"O c #A19C33",
"+ c #FFF300",
"@ c #D8D139",
/* pixels */
"                                                                ",
"                                                                ",
"                                                                ",
"                         .......                       +++++    ",
"++++                 ....OOOOOO..                    ++++++     ",
"+++++              ...OOOOOOOOOO....               ++++++       ",
"  +++++          ...OOOOOOOOOOOOOOO.....            +++         ",
"   ++++      .....OOOOOOOOOOOOOOOOOOOOO...         +++          ",
"           ......OOOOOOOOOOOOOOOOOOOOOOOOO...                   ",
"          ..o..OOOOOOOOOOOOOOOOOOOOOOOOOOOOO...                 ",
"          .oo.OOOOOOOOOOOOOOOOOO@@@@@@@OOOOOOO..                ",
"         .oo.OOOOOOOOOOOOO@@OO@@OOOOOO@@@OOOOOOO..              ",
"        ..o.OOOOOOOOOOOO@@@@@@@OOOOOOOOO@@OOOOOOO..             ",
"        .oo.OOOOOOOOOOO@@O@@@OOOOOOOOOOOO@@OOOOOOO.             ",
"        .o..OOOOOOO@@@OO@@@OOOOOOO@@@@OOOO@@OOOOOOO.            ",
"       ..o.OOOOOOOO@O@O@@@OOOOOOO...O@@@OOO@@@OOOOO.            ",
"       .oo.OOOOOOOO@@@@@OOOOOO......OOO@OOO@@@OOOOOO.           ",
"       .oo.OOOOOOOO@@@OOO...........OOO@@OOO@@@OOOOO.           ",
"       .oo.OOO@OOOOO@@OOOO....X....OOOO@@@OOO@@OOOOO..          ",
"       .oo.OOO@OOOOOO@OOOO.XXXX....OOOO@@O@OO@O@OOOOO.          ",
"       .oo..OO@@OOOOO@@OOO.XXXX....OOOO@@@@O@@O@OOOOO.          ",
"       .ooo.OOO@OOOOOOOOOO.XXXX....OOOO@@@O@@OO@OOOOO.          ",
"       .ooo.OOO@OOOO@OOOOO.XXXX....OOOO@@@O@O@OOOOOO..          ",
"       .ooo.OOO@OOOO@OOOOO.XXXX....OOOO@O@O@O@OOOOOO.           ",
"       .ooo.OOOOOOO@OOOOOO.XX.X....OOOO@@@@O@@OOOOOO.           ",
"       .ooo.OOOOOOO@OOOOOO.XX.X....OOO@@@@OO@@OOOOO.            ",
"       .ooo.OOOOOO@OOOOOOO.XX.X...OOO@@O@@@OO@OOOOO.            ",
"       .ooo.OOOOOO@@@OOOOO.XX.....OOO@@O@@@O@OOOOO..            ",
"       .ooo.OOOOOO@OOOOOOO.XX.....OOOO@@@@@O@OOOOO.             ",
"       .oooo.OOOO@@OOOOOOO.XX.....OOOOO@@@@@@OOOOO.             ",
" ++++  .oooo..OOO@@@OOOOOO.XX.....OOOOO@@@@@@OOOO..             ",
"++++   .ooooo.OOO@O@@OOOOO.XX.....OOOOO@@@@@@OOOO.        ++    ",
"+++++  .oooo..OOO@O@@OOOO.X.X.....OOOO@@@@@@@OOOO.   ++++++++   ",
"+ +    .oooo.OOOO@@O@OOOO.X.XX....OOOO@@@@@@@OOOO.  ++++++      ",
"       .ooo.OOOOOOOO@OOOOO..X....OOOO@@@@@@@@OOO.               ",
"       .ooo.OOOOOOOO@OOOOO..X....OO@@O@@@@@@@OOO.               ",
"       .ooo.OOOOOOO@@OOOOO..XX...OOOOO@@@@@@@OOO.               ",
"       .ooo.OOOOOO@@@@OOOO..X....OOOOO@@@@@@@OOO.               ",
"       .ooo..OOOOO@@@@OOOO..X....OOOOOO@@@@@@OOO.               ",
"       .oooo.OOOO@O@@OOOOO..X.....OOOOO@@@@O@OOO.               ",
"       .oooo.OOOO@@@@OOOOO..X.....OOOOO@@@@O@OOO.               ",
"       .oooo.OOO@@@@@OOOOO..X.....OOOOO@@@@OOOOO.               ",
"       .oooo.OOOOO@@OOOOOO........OOOOO@@@OOOOOO.               ",
"       .oooo.OOOOO@OOOOOOO........OOOO@@@OOOO@OO.               ",
"       .oooo.OOOOO@OOOOOOO........OO@@O@@@OOO@OO.               ",
"       .ooooo.OOOOOOOOOO@O........O@OOOO@OOO@OOO.               ",
"       ..oooo..OOOOOOO@@OOOO..OOOO@OOOOO@OO@@OOO.               ",
"        .ooooo.OOOOOO@@OOOOOOOOO@@OOOOO@@O@@OOOO.               ",
"        .ooooo.OOOOO@OOOOOOOOOO@OOOOOO@@@@@OOOO..               ",
"        ..oooo.OOOOOOOOO@@@@O@@OOOOOOOOOOOOOOO..                ",
"         .oooo.OOOOOOOO@OO@@@OOOOOOOOOOOOOOO...                 ",
"          .ooo.OOOOOOOOO@@@@OOOOOOOOOOOOOO...                   ",
"          ..oo.OOOOOO@@@@OOOOOOO@@OOOOOOO..                     ",
"           .oo..OOOO@@@@OOOOOO@@@@OOOOOO..                      ",
"           .ooo.OOOO@@@@@@@@@@@OOOOOOO..          ++            ",
"           ..oo..OOOOOOOOOOOOOOOOOO....           +++           ",
"            .ooo..OOOOOOOOOOOOOO...               ++++          ",
"    +++     ..ooo.OOOOOOOOOO.......                ++++         ",
"   ++++       ..................                    ++++        ",
" +++++          ...........                          +++        ",
" ++++                                                           ",
"+++                                                             ",
"+                                                               ",
"                                                                "
};
