/* XPM */
static char *result[] = {
/* columns rows colors chars-per-pixel */
"64 64 24 1 ",
"  c black",
". c gray8",
"X c #272626",
"o c #3F3A3A",
"O c #721E1E",
"+ c #5A2020",
"@ c #7E2C2C",
"# c #2D663F",
"$ c #55045A",
"% c #695D6A",
"& c #851E1E",
"* c #A50909",
"= c #B42020",
"- c #E41414",
"; c #FF4848",
": c #379555",
"> c #DCA200",
", c #378695",
"< c #199CB4",
"1 c gray60",
"2 c #F3EFEF",
"3 c #F6FEFF",
"4 c white",
"5 c None",
/* pixels */
"************************OOOOOO********************************O*",
"*************OOO***                  ***                  ****O*",
"OOO*O**OO**OO***   44444  4444444444     *OO*   @@@@@44444  **O*",
"**OO*O*OO***    4 444444444444444444 444 **O**O*  @@@@@44444 *O*",
"***O*OOO*** 44444 444      44      4 44  *O*OOOOO*  @@@@4444 *OO",
"**OOOOOO*  444444     4444   OO***     **OOOOOOO**** @-@@@444 **",
"**O****  4  444444 44444444 OO****OOOOOOOO***OO****** -- -%44 **",
"*OO*** 4444        444444  *OOOO*OO*O*******O       ** - --@44 *",
"*O*** 4 4444  4444 44444 ********OOOO****        $$   5  --@@@ *",
"O**  44  4  4  4        ***    **** OO         $$$$$ $ 5  -@@@ *",
"O* 44444   4444  ****          *    4444444 ** $$$$$$ $ ** @@@ *",
"** 44     444  **     444444    444444  4444 ** $$$$$$ $ **    O",
"*    4444    **  4444444444 4444444444 44444 *** $$$$$$ $ ***OOO",
"*   4444   **** 444444444  444  44444444444 **O** $$$$$$   *OOOO",
"****    *******  44444   * 4444  44444444OO**OO** $$$$$$$   **OO",
"****************      ***** 44  44444444 *O**OOOO $$$$$$$$ $ **O",
"*****       ***    44     **  4444444   ****OO**** $$$$$$$$ $ **",
"***  4444444   4444444444    *       5     OO      $$$$$$$$$ $ *",
"*  4444;;;;444444444444;;444  ****              ++  $$$$$$$$$  *",
"*   444444;;444;4444;;;;44444 *    +           ++    $$$$$$$$$ *",
"* 5 4444444;44;4;;;;;44444444 *    +  4444    ++      $$$$$$$  *",
"*   44444;4444444444444;;;;;;        44444444           $$$$$ **",
"* 444444;4;4;;;;;;;;;;;4444444  +++  44444444         **   $$ **",
"* 444444;444444444444;;4444444       444++444  +     ******  ***",
"** 44444;;4;4444444444;;444444       444++444  ++    ********OO*",
"*** 44444444;;            44444       444444       *OOOO****OOO*",
"****  4444    ******            **      444       ****OOOO**OO**",
"OOOO**    5         111111   **OO**             *****OO**OOOO***",
"OO****    1111111111114111111  *OO*         *********O**********",
"*OO**  111111444444444444444111**O** 4;                     ****",
"OOO* 411144444     444444444414 *O* 4;;;4444;;444444444;;;44 ***",
"**O 444444444 :### 444444444444 OO 44444   4;;;;;444444;44444 **",
"**O 44444444 :4:#:: 44444444444OO 44444  =      4444444444444 **",
"**O 4;;;444  :44###: 4444444444 * 44444 =&&&&&&  44444444444 ***",
"*OOOO4444444  :#::   444;;;444 ** 44444 =&&&=&&& 4444444444 OO*O",
"O***O 44444444     4444444;;;4 *O 44444 =&=&&&&= 44444444  OOOOO",
"O***O*  444444444444444444444 OOO 4;;44   &====  4444444 *******",
"*****       444444444444444  *OOO 4;44444  ==   444444  5     **",
"**    ooo     4444;;444444 **O****      444==44444    **  >>>  *",
"* oXXXXXXooooo  44;4444   **       4      44=4    *****  >> >>> ",
" ooX...   ..XXoo            44444444444       ********* > > >>> ",
"  oXXX.   ...Xoo ***   444444444444444444     ***OOOOO* > >> >> ",
"*  ooXX   XXXXo  *  444444       4444444;;44  **OOOOO**  >>> >> ",
"***  oXXXXXoooo 5 444444          4444;;;44444 OOOOO***      >> ",
"*OOO*           ;;44444            444;44444444OOOO*OO* >>>>>  *",
"OOOOOOOOOOOO** 4;4;4444     2       44;44444444OO****O* >>>> ***",
"O*OO********* 444444444             44444;;444 O***OOO*      ***",
"*O***         444444444             444444444 *****OOOO**OOOO**O",
"O**  ;;444    44444;444           44444444        ****OOOO***OO*",
"** 44;4444;44   44;;444444      44444444  ****       ***OOOOO***",
"* 444;;444;444   444444444444444444     **     ,,,<<<          *",
" 44444;444;44444                   *****  4444 ,3333<,, 4444444 ",
" 444444444;444444 *OOOOOO***OOOOOOOO*** <      <,,<3<<< 44444444",
" 444444444;;44444 OO**             **   ,,,<,<,<,,,<<<  44444444",
"4;;;;;;4444444444 *   44444444444   *   ,<,,,<,<,<<<  4444444444",
"444;4444;;444 44 * 44444444444444444 44  <,<,<,,,    44444444444",
" 44;;;;4;4444444  4444   4444444444  4444         44444444444444",
"* 4444;444444    4444     444444444  444444444444444444444444444",
"**              44444      44444444 4444444444444444444444444444",
"OO**   44444444  4444  444 44444    4444444444444444444444444444",
"*   44  4444444  44444    4444  *** 44444444444444444444444444  ",
"* 4444444444444  44444444444  ******  44444444444444444444    **",
"*  44444444444              *OOOOOO***   444444444        ******",
"OO*           ***OOOOOOO*****OO*OOOOOO***         **************"
};
