/* XPM */
static char *_dc98ae99183498b9cafee31d7d18f1269hl0N2jkGcTvEQn[] = {
/* columns rows colors chars-per-pixel */
"64 64 22 1 ",
"  c None",
". c black",
"X c gray8",
"o c #272626",
"O c #3F3A3A",
"+ c #721E1E",
"@ c #5A2020",
"# c #7E2C2C",
"$ c #695D6A",
"% c #851E1E",
"& c #A50909",
"* c #B42020",
"= c #E41414",
"- c #FF4848",
"; c #379555",
": c #DCA200",
"> c #D004DC",
", c #378695",
"< c #199CB4",
"1 c gray60",
"2 c #F6FEFF",
"3 c white",
/* pixels */
"&&&&&&&&&&&&&&&&&&&&&&&&++++++&&&&&&&&&&&&&&&&&&&&&&&&&&&&&&&&+&",
"&&&&&&&&&&&&&+++&&&..................&&&..................&&&&+&",
"+++&+&&++&&++&&&...33333..3333333333.....&++&...#####33333..&&+&",
"&&++&+&++&&&....3.333333333333333333.333.&&+&&+&..#####33333.&+&",
"&&&+&+++&&&.33333.333......33......3.33..&+&+++++&..####3333.&++",
"&&++++++&..333333.....3333...++&&&.....&&+++++++&&&&.#=###333.&&",
"&&+&&&&..3..333333.33333333.++&&&&++++++++&&&++&&&&&&.==.=$33.&&",
"&++&&&.3333........333333..&++++&++&+&&&&&&&+.......&&.=.==#33.&",
"&+&&&.3.3333..3333.33333.&&&&&&&&++++&&&&...33333333.. ..==###.&",
"+&&..33..3..3..3........&&&....&&&&.++.........3333333. ..=###.&",
"+&.33333...3333..&&&&..........&....3333333.&&.33333333.&&.###.&",
"&&.33.....333..&&.....333333....333333..3333.&&.33333333.&&....+",
"&....3333....&&..3333333333.3333333333.33333.&&&.33333333.&&&+++",
"&...3333...&&&&.333333333..333..33333333333.&&+&&.33.......&++++",
"&&&&....&&&&&&&..33333...&.3333..33333333++&&++&&.333.>>3...&&++",
"&&&&&&&&&&&&&&&&......&&&&&.33..33333333.&+&&++++.333.>>33.3.&&+",
"&&&&&.......&&&....33.....&&..3333333...&&&&++&&&&.33.>>>>.33.&&",
"&&&..3333333...3333333333....&....... .....++......333.....333.&",
"&..3333----3333333333333-333..&&&&..............@@..3333333333.&",
"&...3333&&3-333---333---33333.&....@...........@@....333333333.&",
"&. .3333333-33-3------3333333.&....@..333333..@@......3333333..&",
"&...33333-3333333333333------........33333@@3...........33333.&&",
"&.333333-3-3----&&-----33&&&33..@@@..333@@@@33........&&...33.&&",
"&.333333-333333-&--333-3333333.......333@@@@33.@.....&&&&&&..&&&",
"&&.33333--3-33333333333-333333.......3333@@@33.@@....&&&&&&&&++&",
"&&&.33333333--............33333......33333@@3......&++++&&&&+++&",
"&&&&..3333....&&&&&&............&&....3333333.....&&&&++++&&++&&",
"++++&&.... .........111111...&&++&&.....33......&&&&&++&&++++&&&",
"++&&&&....1111111111113111111..&++&.........&&&&&&&&&+&&&&&&&&&&",
"&++&&..11111133333333333....111&&+&&.3-.....................&&&&",
"+++&.33333333333333333...;;.333.&+&.3---3333--333333333---33.&&&",
"&&+.33333333333333333..;;;;..33.++.33333...3-----333333-33333.&&",
"&&+.33-------3333333..;;;;33.33++.33333..*......3333333333333.&&",
"&&+.--3-333333333333...;333..33.&.33333.*%%%%%%..33333333333.&&&",
"&++++333-3333333333333.;;;..33.&&.33333.*%%%*%%%.3333333333.++&+",
"+&&&+.3333333333333333.....333.&+.33333.*%*%%%%*.33333333..+++++",
"+&&&+&..333333333333333333333.+++.3--33.*.%****..3333333.&&&&&&&",
"&&&&&.......333333333333333..&+++.3-3333*..**...333333.. .....&&",
"&&....OOO.....33333333--33.&&+&&&&.....**333333333....&&..:::..&",
"&.OooooooOOOOO..3333--3...&&............**3333....&&&&&..::.:::.",
".OOoXXX...XXooOO.........................*....&&&&&&&&&.:.:.:::.",
"..OoooX...XXXoOO.&&&..........................&&&+++++&.:.::.::.",
"&..OOoo...ooooO..&............................&&+++++&&..:::.::.",
"&&&..OoooooOOOO. ..............................+++++&&&......::.",
"&+++&..........................................++++&++&.:::::..&",
"++++++++++++&&.................................++&&&&+&.::::.&&&",
"+&++&&&&&&&&&..................................+&&&+++&......&&&",
"&+&&&.........................................&&&&&++++&&++++&&+",
"+&&..--333........................................&&&&++++&&&++&",
"&&.33-3333-33.............................&&&&.......&&&+++++&&&",
"&.333--333-333..........................&&.....,,,<<<..........&",
".33333-333-33333...................&&&&&..3333.,2222<,,.3333333.",
".333333333-333333.&++++++&&&++++++++&&&.<......<,,<2<<<.33333333",
".333333333--33333.++&&.............&&...,,,<,<,<,,,<<<..33333333",
"3------3333333333.&...33333333333...&...,<,,,<,<,<<<..3333333333",
"333-3333--333.33.&.33333333333333333.33..<,<,<,,,....33333333333",
".33----3-3333333..3333...3333333333..3333.........33333333333333",
"&.3333-333333....3333.....333333333..333333333333333333333333333",
"&&..............33333......33333333.3333333333333333333333333333",
"++&&...33333333..3333..333.33333....3333333333333333333333333333",
"&...33..3333333..33333....3333..&&&.33333333333333333333333333..",
"&.3333333333333..33333333333..&&&&&&..33333333333333333333....&&",
"&..33333333333..............&++++++&&&...333333333........&&&&&&",
"++&...........&&&+++++++&&&&&++&++++++&&&.........&&&&&&&&&&&&&&"
};
