/* XPM */
static char *_074fd007973413c9b84bebff01ff8c67ti6BWveGuYrNCpP[] = {
/* columns rows colors chars-per-pixel */
"64 64 24 1 ",
"  c None",
". c black",
"X c gray8",
"o c #272626",
"O c #3F3A3A",
"+ c #721E1E",
"@ c #5A2020",
"# c #7E2C2C",
"$ c #695D6A",
"% c #851E1E",
"& c #A50909",
"* c #B42020",
"= c #E41414",
"- c #FF4848",
"; c #379555",
": c #DCA200",
"> c #D004DC",
", c #378695",
"< c #199CB4",
"1 c gray60",
"2 c #B8AFAF",
"3 c #F3EFEF",
"4 c #F6FEFF",
"5 c white",
/* pixels */
"&&&&&&&&&&&&&&&&&&&&&&&&++++++&&&&&&&&&&&&&&&&&&&&&&&&&&&&&&&&+&",
"&&&&&&&&&&&&&+++&&&..................&&&..................&&&&+&",
"+++&+&&++&&++&&&...55555..5555555555.....&++&...#####55555..&&+&",
"&&++&+&++&&&....5.555555555555555555.555.&&+&&+&..#####55555.&+&",
"&&&+&+++&&&.55555.555......55......5.55..&+&+++++&..####5555.&++",
"&&++++++&..555555.....5555...++&&&.....&&+++++++&&&&.#=###555.&&",
"&&+&&&&..5..555555.55555555.++&&&&++++++++&&&++&&&&&&.==.=$55.&&",
"&++&&&.5555........555555..&++++&++&+&&&&&&&+.......&&.=.==#55.&",
"&+&&&.5.5555..5555.55555.&&&&&&&&++++&&&&...55555555.. ..==###.&",
"+&&..55..5..5..5........&&&....&&&&.++.........5555555. ..=###.&",
"+&.55555...5555..&&&&..........&....5555555.&&.55555555.&&.###.&",
"&&.55.....555..&&.....555555....555555..5555.&&.55555555.&&....+",
"&....5555....&&..5555555555.5555555555.55555.&&&.55555555.&&&+++",
"&...5555...&&&&.555555555..555..55555555555.&&+&&.55.......&++++",
"&&&&....&&&&&&&..55555...&.5555..55555555++&&++&&.555.>>5...&&++",
"&&&&&&&&&&&&&&&&......&&&&&.55..55555555.&+&&++++.555.>>55.5.&&+",
"&&&&&.......&&&....55.....&&..5555555...&&&&++&&&&.55.>>>>.55.&&",
"&&&..5555555...5555555555....&....... .....++......555.....555.&",
"&..5555----555555555555--555..&&&&..............@@..5555555555.&",
"&...5555----555---55----55555.&....@...........@@....555555555.&",
"&. .5555555-55-5------5555555.&....@..555555..@@@.....5555555..&",
"&...55555-5555555555555------........55@@5555...........55555.&&",
"&.555555-5-5-----------55--555..@@@..55@@@@555........&&...55.&&",
"&.55555--555555--5555--5555555...@@@.5@@@@@555.@.....&&&&&&..&&&",
"&&.55555--5-5555555555--555555.....@.5@@@@5555.@@....&&&&&&&&++&",
"&&&.55555555--............55555......55@@5555....@.&++++&&&&+++&",
"&&&&..5555....&&&&&&............&&....5555555.....&&&&++++&&++&&",
"++++&&.... .........111111...&&++&&.....55......&&&&&++&&++++&&&",
"++&&&&....1555555555555111111..&++&.........&&&&&&&&&+&&&&&&&&&&",
"&++&&..5.....22222225555....111&&+&&.5-.....................&&&&",
"+++&.555.;;$..5555552$...;;.555.&+&.5---5555--555555555---55.&&&",
"&&+.5555.;;;$$$$$$$$$..;;;;..55.++.55555...5-----555555-55555.&&",
"&&+.5555.5;;;;.55555..;;;;44.--++.55555..*......5555555555555.&&",
"&&+.--55.55;;;.55522...;;44..5-.&.55555.*%%%%%%..55555555555.&&&",
"&++++555.......5225555..;...55.&&.55555.*%%%*%%%.5555555555.++&+",
"+&&&+.55555555225555555...5555.&+.55555.*%*%%%%*.55555555..+++++",
"+&&&+&..555555555555555555555.+++.5--55**.%****..5555555.&&&&&&&",
"&&&&&.......555555555555555..&+++.5-5555*.......555555.. .....&&",
"&&....OOO.....--555555--55.&&+&&&&.....**555555555....&&..:::..&",
"&.OooooooOOOOO..555555-...&&.............*5555....&&&&&..::.:::.",
".OOoXXX...XXooOO..............................&&&&&&&&&.:.:.:::.",
"..OoooX...XXXoOO.&&&..........................&&&+++++&.:.::.::.",
"&..OOoo...ooooO..&............................&&+++++&&..:::.::.",
"&&&..OoooooOOOO. ..............................+++++&&&......::.",
"&+++&..........................................++++&++&.:::::..&",
"++++++++++++&&..............3.......55-55555...++&&&&+&.::::.&&&",
"+&++&&&&&&&&&.555555555.............55555--555.+&&&+++&......&&&",
"&+&&&.........555555555.............555555555.&&&&&++++&&++++&&+",
"+&&..--555....55555-555...........55555...........&&&&++++&&&++&",
"&&.55-5555-55......-555...................&&&&.......&&&+++++&&&",
"&.555--555-555..........................&&.....,,,<<<..........&",
".55555-555-55555...................&&&&&..5555.,4444<,,.5555555.",
".555555555-555555.&++++++&&&++++++++&&&.<......<,,<4<<<.55555555",
".555555555--55555.++&&.............&&...,,,<,<,<,,,<<<..55555555",
"5------5555555555.&...55555555555...&...,<,,,<,<,<<<..5555555555",
"555-5555--555.55.&.55555555555555555.55..<,<,<,,,....55555555555",
".55----5-5555555..5555...5555555555..5555.........55555555555555",
"&.5555-555555....5555.....555555555..555555555555555555555555555",
"&&..............55555......55555555.5555555555555555555555555555",
"++&&...55555555..5555..555.55555....5555555555555555555555555555",
"&...55..5555555..55555....5555..&&&.55555555555555555555555555..",
"&.5555555555555..55555555555..&&&&&&..55555555555555555555....&&",
"&..55555555555..............&++++++&&&...555555555........&&&&&&",
"++&...........&&&+++++++&&&&&++&++++++&&&.........&&&&&&&&&&&&&&"
};
