/* XPM */
static char *result[] = {
/* columns rows colors chars-per-pixel */
"64 64 25 1 ",
"  c black",
". c gray8",
"X c #272626",
"o c #3F3A3A",
"O c #721E1E",
"+ c #5A2020",
"@ c #7E2C2C",
"# c #2D663F",
"$ c #55045A",
"% c #695D6A",
"& c #851E1E",
"* c #A50909",
"= c #B42020",
"- c #E41414",
"; c #FF4848",
": c #379555",
"> c #DCA200",
", c #D004DC",
"< c #378695",
"1 c #199CB4",
"2 c gray60",
"3 c #F3EFEF",
"4 c #F6FEFF",
"5 c white",
"6 c None",
/* pixels */
"************************OOOOOO********************************O*",
"*************OOO***                  ***                  ****O*",
"OOO*O**OO**OO***   55555  5555555555     *OO*   @@@@@55555  **O*",
"**OO*O*OO***    5 555555555555555555 555 **O**O*  @@@@@55555 *O*",
"***O*OOO*** 55555 555      55      5 55  *O*OOOOO*  @@@@5555 *OO",
"**OOOOOO*  555555     5555   OO***     **OOOOOOO**** @-@@@555 **",
"**O****  5  555555 55555555 OO****OOOOOOOO***OO****** -- -%55 **",
"*OO*** 5555        555555  *OOOO*OO*O*******O       ** - --@55 *",
"*O*** 5 5555  5555 55555 ********OOOO****        55   6  --@@@ *",
"O**  55  5  5  5        ***    **** OO         $  55 $ 6  -@@@ *",
"O* 55555   5555  ****          *    5555555 ** $$$ 55 $ ** @@@ *",
"** 55     555  **     555555    555555  5555 ** $$$ 55 $ **    O",
"*    5555    **  5555555555 5555555555 55555 *** $$$ 55 $ ***OOO",
"*   5555   **** 555555555  555  55555555555 **O** $$$      *OOOO",
"****    *******  55555   * 5555  55555555OO**OO** $$$$ ,5   **OO",
"****************      ***** 55  55555555 *O**OOOO $$$$ ,55 $ **O",
"*****       ***    55     **  5555555   ****OO**** $$$$ ,,  $ **",
"***  5555555   5555555555    *       6     OO     $$$$$$   5 $ *",
"*  5555;;;;555555555555;;555  ****              ++  $$$$$ 555  *",
"*   555555;;555;5555;;;;55555 *    +           ++    $$$$$ 555 *",
"* 6 5555555;55;5;;;;;55555555 *    +  5555    ++      $$$$$    *",
"*   55555;5555555555555;;;;;;        55555555           $$$$$ **",
"* 555555;5;5;;;;;;;;;;;5555555  +++  55555555         **   $$ **",
"* 555555;555555555555;;5555555       555++555  +     ******  ***",
"** 55555;;5;5555555555;;555555       555++555  ++    ********OO*",
"*** 55555555;;            55555       555555       *OOOO****OOO*",
"****  5555    ******            **      555       ****OOOO**OO**",
"OOOO**    6         222222   **OO**             *****OO**OOOO***",
"OO****    2222222222225222222  *OO*         *********O**********",
"*OO**  222222555555555555555222**O** 5;                     ****",
"OOO* 522255555     555555555525 *O* 5;;;5555;;555555555;;;55 ***",
"**O 555555555 :### 555555555555 OO 55555   5;;;;;555555;55555 **",
"**O 55555555 :5:#:: 55555555555OO 55555  =      5555555555555 **",
"**O 5;;;555  :55###: 5555555555 * 55555 =&&&&&&  55555555555 ***",
"*OOOO5555555  :#::   555;;;555 ** 55555 =&&&=&&& 5555555555 OO*O",
"O***O 55555555     5555555;;;5 *O 55555 =&=&&&&= 55555555  OOOOO",
"O***O*  555555555555555555555 OOO 5;;55   &&&==  5555555 *******",
"*****       555555555555555  *OOO 5;55555  ==   555555  6     **",
"**    ooo     5555;;555555 **O****      555==55555    **  >>>  *",
"* oXXXXXXooooo  55;5555   **       5      55=5    *****  >> >>> ",
" ooX...   ..XXoo            55555555555       ********* > > >>> ",
"  oXXX.   ...Xoo ***   555555555555555555     ***OOOOO* > >> >> ",
"*  ooXX   XXXXo  *  555555       5555555;;55  **OOOOO**  >>> >> ",
"***  oXXXXXoooo 6 555555          5555;;;55555 OOOOO***      >> ",
"*OOO*           ;;55555            555;55555555OOOO*OO* >>>>>  *",
"OOOOOOOOOOOO** 5;5;5555     3       55;55555555OO****O* >>>> ***",
"O*OO********* 555555555             55555;;555 O***OOO*      ***",
"*O***         555555555             555555555 *****OOOO**OOOO**O",
"O**  ;;555    55555;555           55555555        ****OOOO***OO*",
"** 55;5555;55   55;;555555      55555555  ****       ***OOOOO***",
"* 555;;555;555   555555555555555555     **     ......          *",
" 55555;555;55555                   *****  555...1444111..555555 ",
" 555555555;555555 *OOOOOO***OOOOOOOO*** 555...4..1111<1<<.555555",
" 555555555;;55555 OO**             **  55...4444.<<<1<1<1.555555",
"5;;;;;;5555555555 *   55555555555   *  5..1.444..<<1<111.5555555",
"555;5555;;555 55 * 55555555555555555 555.11.....1111<11..5555555",
" 55;;;;5;5555555  5555   5555555555  555.1<<1<1<1<1<<1..55555555",
"* 5555;555555    5555     555555555  555..111<1<1<<<1..555555555",
"**              55555      55555555 55555.............5555555555",
"OO**   55555555  5555  555 55555    5555555555555555555555555555",
"*   55  5555555  55555    5555  *** 55555555555555555555555555  ",
"* 5555555555555  55555555555  ******  55555555555555555555    **",
"*  55555555555              *OOOOOO***   555555555        ******",
"OO*           ***OOOOOOO*****OO*OOOOOO***         **************"
};
