/* XPM */
static char *result[] = {
/* columns rows colors chars-per-pixel */
"64 64 23 1 ",
"  c black",
". c gray8",
"X c #272626",
"o c #3F3A3A",
"O c #721E1E",
"+ c #5A2020",
"@ c #7E2C2C",
"# c #2D663F",
"$ c #695D6A",
"% c #851E1E",
"& c #A50909",
"* c #B42020",
"= c #E41414",
"- c #FF4848",
"; c #379555",
": c #DCA200",
"> c #D004DC",
", c #378695",
"< c #199CB4",
"1 c gray60",
"2 c #F3EFEF",
"3 c white",
"4 c None",
/* pixels */
"&&&&&&&&&&&&&&&&&&&&&&&&OOOOOO&&&&&&&&&&&&&&&&&&&&&&&&&&&&&&&&O&",
"&&&&&&&&&&&&&OOO&&&                  &&&                  &&&&O&",
"OOO&O&&OO&&OO&&&   33333  3333333333     &OO&   @@@@@33333  &&O&",
"&&OO&O&OO&&&    3 333333333333333333 333 &&O&&O&  @@@@@33333 &O&",
"&&&O&OOO&&& 33333 333      33      3 33  &O&OOOOO&  @@@@3333 &OO",
"&&OOOOOO&  333333     3333   OO&&&     &&OOOOOOO&&&& @=@@@333 &&",
"&&O&&&&  3  333333 33333333 OO&&&&OOOOOOOO&&&OO&&&&&& == =$33 &&",
"&OO&&& 3333        333333  &OOOO&OO&O&&&&&&&O       && = ==@33 &",
"&O&&& 3 3333  3333 33333 &&&&&&&&OOOO&&&&   33333333  4  ==@@@ &",
"O&&  33  3  3  3        &&&    &&&& OO         3333333 4  =@@@ &",
"O& 33333   3333  &&&&          &    3333333 && 33333333 && @@@ &",
"&& 33     333  &&     333333    333333  3333 && 33333333 &&    O",
"&    3333    &&  3333333333 3333333333 33333 &&& 33333333 &&&OOO",
"&   3333   &&&& 333333333  333  33333333333 &&O&& 33       &OOOO",
"&&&&    &&&&&&&  33333   & 3333  33333333OO&&OO&& 333 >>3   &&OO",
"&&&&&&&&&&&&&&&&      &&&&& 33  33333333 &O&&OOOO 333 >>33 3 &&O",
"&&&&&       &&&    33     &&  3333333   &&&&OO&&&& 33 >>>> 33 &&",
"&&&  3333333   3333333333    &       4     OO      333     333 &",
"&  3333----333333333333--333  &&&&              ++  3333333333 &",
"&   33333---333---33----33333 &    +           ++    333333333 &",
"& 4 3333333-33-3-----33333333 &    +  3333    ++      3333333  &",
"&   33333-3333333333333------        33333333           33333 &&",
"& 333333-3-3-----------333-333  +++  333++333         &&   33 &&",
"& 333333-333333-33333--3333333       33++++33  +     &&&&&&  &&&",
"&& 33333--3-3333333333--333333       33++++33  ++    &&&&&&&&OO&",
"&&& 33333333--            33333       33++33       &OOOO&&&&OOO&",
"&&&&  3333    &&&&&&            &&      333       &&&&OOOO&&OO&&",
"OOOO&&    4         111111   &&OO&&             &&&&&OO&&OOOO&&&",
"OO&&&&    1111111111113111111  &OO&         &&&&&&&&&O&&&&&&&&&&",
"&OO&&  111111333333333333333111&&O&& 3-                     &&&&",
"OOO& 311133333     333333333313 &O& 3---3333--333333333---33 &&&",
"&&O 333333333 ;### 333333333333 OO 33333   3-----333333-33333 &&",
"&&O 33333333 ;3;#;; 33333333333OO 33333  *      3333333333333 &&",
"&&O 3---333  ;33###; 3333333333 & 33333 *%%%%%%  33333333333 &&&",
"&OOOO3333333  ;#;;   333---333 && 33333 *%%%*%%% 3333333333 OO&O",
"O&&&O 33333333     3333333---3 &O 33333 *%*%%%%* 33333333  OOOOO",
"O&&&O&  333333333333333333333 OOO 3--33   %%%**  3333333 &&&&&&&",
"&&&&&       333333333333333  &OOO 3-33333  %*   333333  4     &&",
"&&    ooo     3333--333333 &&O&&&&      333**33333    &&  :::  &",
"& oXXXXXXooooo  33-3333   &&       3      3**3    &&&&&  :: ::: ",
" ooX...   ..XXoo            33333333333     * &&&&&&&&& : : ::: ",
"  oXXX.   ...Xoo &&&   333333333333333333     &&&OOOOO& : :: :: ",
"&  ooXX   XXXXo  &  333333       3333333--33  &&OOOOO&&  ::: :: ",
"&&&  oXXXXXoooo 4 333333          3333---33333 OOOOO&&&      :: ",
"&OOO&           --33333            333-33333333OOOO&OO& :::::  &",
"OOOOOOOOOOOO&& 3-3-3333     2       33-33333333OO&&&&O& :::: &&&",
"O&OO&&&&&&&&& 333333333             33333--333 O&&&OOO&      &&&",
"&O&&&         333333333             333333333 &&&&&OOOO&&OOOO&&O",
"O&&  --333    33333-333           33333333        &&&&OOOO&&&OO&",
"&& 33-3333-33   33--333333      33333333  &&&&       &&&OOOOO&&&",
"& 333--333-333   333333333333333333     &&     333333          &",
" 33333-333-33333                   &&&&&  333333     3333333333 ",
" 333333333-333333 &OOOOOO&&&OOOOOOOO&&& 333      ,,<     3333333",
" 333333333--33333 OO&&             &&  333  ,<<<<,<<<,<< 3333333",
"3------3333333333 &   33333333333   & 33   <,<    <,,<<<  333333",
"333-3333--333 33 & 33333333333333333 333 <<<< 3333 <<<<,, 333333",
" 33----3-3333333  3333   3333333333  333 ,<,, 3333 <,<<<< 333333",
"& 3333-333333    3333     333333333  333 <,,<<    ,<<,,<< 333333",
"&&              33333      33333333 3333 <<,,<,<<<,<<<<<  333333",
"OO&&   33333333  3333  333 33333    3333   <,<<<<<,<<<   3333333",
"&   33  3333333  33333    3333  &&& 333333             3333333  ",
"& 3333333333333  33333333333  &&&&&&  33333333333333333333    &&",
"&  33333333333              &OOOOOO&&&   333333333        &&&&&&",
"OO&           &&&OOOOOOO&&&&&OO&OOOOOO&&&         &&&&&&&&&&&&&&"
};
