/* XPM */
static char *e85065d23a4c4c00825b48f53b0e7457o5TBtSxZkSq5H8JF[] = {
/* columns rows colors chars-per-pixel */
"64 64 6 1 ",
"  c None",
". c black",
"X c #22224B",
"o c #3F3F74",
"O c #434343",
"+ c #847E87",
/* pixels */
"                                                                ",
"            ....        .....                                   ",
"           ..XXX..    ...XXX.     .                             ",
"          .XXXXXX... ..XXXXX.     .                             ",
"         ..XXXXXooo...XXXXX..    .                              ",
"         .XXXXXXooooo.XXX..... ...                              ",
"        ..XXXXooooooo.XXX....... ...                            ",
"        .XXXXooooo..XXX.... ...   ....                          ",
"        .XXXXoooo.XXX...   ..     .  .                          ",
"        .....oo..XX..     ..         ..                         ",
"             ...XX.        ..         .                         ",
"             ..XX.         ...        .                         ",
"            ..X..          ...        .                         ",
"          ...XX..          ...        .                         ",
"         XXXX....                     .                         ",
"        ...... . ..                   .                         ",
"               .   ...               .                          ",
"              .   .                  .                          ",
"              .   ...     ..        .                           ",
"             ..   ...     . ..     ..                           ",
"             .     ..        ..   ..    ....                    ",
"             .     .       .  .   .    .++++..                  ",
"             .            ..  .  ..   ..+++++.                  ",
"             .           .    .  ..  ..+++++++.                 ",
"             .          .       ..   .++++++++.                 ",
"             .         .        .    .++++++++.                 ",
"             .       ..        .     .+++++++.                  ",
"             ..   ...        ..     ..+++++++.                  ",
"              .            ..       .++++++..                   ",
"              ..         ..         .++++++.                    ",
"               .       ..           .++++..                     ",
"               ..    .. .           .+++.......                 ",
"                ..  .....        ......+.+++++..                ",
"                 ....   .      ...++++.......++.                ",
"                        .  ......+++++++.++++++..               ",
"                       ......  ..+++++++..++++++.               ",
"                      ...      ..+++++++++++++++.               ",
"                   ...  .       .++++++++++++++.                ",
"                 ..     .       .++++++++++++...                ",
"                .       .      ...++++++++++...                 ",
"              ..        .      ..O..++++++..++..                ",
"   ...       .          .     .++O+.......+++++.                ",
"      .... ..           .     ..++++++++++++++..                ",
"          .             .      .++++++++++++++.                 ",
"        ..              .     ....+++++++++..+.                 ",
"       ..                .    .............++..                 ",
"      . .                .    .+++++++++++++..                  ",
"     .  .                .    .++++++++++++..                   ",
"    .   .                ..   ..+++++++++..                     ",
"    .   .               ...    ..++++++...                      ",
"        ..             .. ..     ......                         ",
"         .             .    .                                   ",
"         .             .    .                                   ",
"                       .     .                                  ",
"                       .      .                                 ",
"                       .       .                                ",
"                       .        .........                       ",
"             ......... .         .      ..                      ",
"           ...        ..        ....     .                      ",
"         ..         ...          .........                      ",
"         .     .........            ....                        ",
"         ..........                                             ",
"            ....                                                ",
"                                                                "
};
