/* XPM */
static char *cb4783fbb7374ab3add43a6a1b62a4b26HCZySkkaRTtxDOA[] = {
/* columns rows colors chars-per-pixel */
"64 64 7 1 ",
"  c None",
". c black",
"X c #A57645",
"o c #D07878",
"O c #D48D3F",
"+ c #B18960",
"@ c #C48D4F",
/* pixels */
"                                                                ",
"                                                                ",
"                                                                ",
"                             ..........                         ",
"                     ........@@@@@@@@@.                         ",
"        ............@@@@@@@@@@@@@@@@@@@.                        ",
"      ..@@@@@@@@@@@@@@@@@@@@@@@@@@@@@@@.                        ",
"    ..@@@@@@@@@@@@@@@@@@@@@@@@@@@@@@@@@@.                       ",
"   ..@@@@@@@@@@@@@@@@@@@@@@@@@@@@@@@@@@@@.                      ",
"  ..@@@@@@@@@@@@@@@@@@@@@@@@@@@@@@@@@@@@@@.                     ",
"  .@@@@@@@@@@@@@@@@@@@@@@@@@@@@@@@@@@@@@@@@.                    ",
" .@@@@@@@@@@@@@@@@@@@@@@@@@@@@@@@@@@@@@@@@@@.                   ",
" .@@@@@@@@@@@@@@@@@@@@@@@@@@@@@@@@@@@@@O@@@@@.                  ",
" .@@@@@@@@@@@@@@@@@@@@@@@@@@@@@@@@@@@@@OO@@@@.                  ",
" .@@@@@@@@@@@@@@@@@@@@@@@@@@@@@@@@@@@@@@OO@@@@..                ",
" .@@@@@@@@@@@@@@@@@@@@@@@@@@@@@@@@@@@@@@@O@@@@@.                ",
" .@@@@@@@@@@@@@@@@@@@@@@@@@@@@@@.@@@@@@@OO@@@@@@.               ",
" .@@@@@@@@@@@@@@@@@@@@@@@@@@@@@@..@@@@@@OO@@@@@@@.              ",
" .@@@@@@@@@@@@@@@@@@@@@@@@@@@@@@@..@@@@@OO@@@@@@@.              ",
" .@@@@@@@@@@@@@@@@@@@@@@@@@@@@@@@@....@@@@@@@@@@@@.             ",
" .@@@@@@@.@@@@@@...@@@@@@@@@@@@@@@@...@@.@@@@@@@@@.             ",
" .@@@@@@X.@@@@....@@@@@@@@@@@@@@@@@@@@@@.X@@@@@@@@.             ",
".@@@@@@@X.@@.....@@@@@@@@@@@@@@@@@@@@@@@.X@@@@@@@@@.            ",
".@@@@@@@X.@@....@@@@@@@@@@@@@@@@@@@@@@@@.X@@@@@@@@@.            ",
".@@@@@@@X.@@..@@@@@@@@@@@@@@@@@@@@@@@@@@.XX@@@@@@@@.            ",
".@@@@@@@X.@..@@@@@@@@@@@@@@@@@@@@@@@@@@@..XX@@@@@@@.            ",
".@@@@@@@X.@@@@@@@@@@@@@@@@@@@@@@@@@@@@@@@..X@@@@@@@.            ",
".@@@@@@XX..@@@@@@@@@@@@@@@@@@@@@@@@@@..@@..X@@@@@@@.            ",
"..@@@@XX...@@@@@@@@@@@@@...............@@@.+X@@@@@@.            ",
" .@@@XXX...@@@@@@@@@@@..................@@..XX@@@@..            ",
"  ..XX.. ..@@@@@@@@@@...................@@@.+X@@@..             ",
"   ....  .@@@@@@@@@@.....................@@.......              ",
"        ..@@@@@@@@@......................@@@.                   ",
"         .@@@@@@@@@......................@@@.                   ",
"         .@@@@@@@@.......................@@@.                   ",
"         .@@@@@@@........................@@@.        ......     ",
"         .@@@@@@@.......................@@@@.      ..+++++.     ",
"         .@@@@@@.......................@@@@@.   ...+++++XX.     ",
"         .@@@@@@.....................@@@@@@@. ...++++++XX..     ",
"         .@@@@@@@..................@@@@@@@@@..+++XXXXXXX..      ",
"         .@@@@@@@@@............@@@@@@@@@@@@.X.XXX.......        ",
"         .@@@@@@@@@@@@@@@@@@@@@@@@@@@@@@@@@.X......             ",
"         .@@@@@@@@@@@@@@@@@@.@@@@@@@@@@@@@.XX.                  ",
"         .@@@@@@@@@@@@@@@@@@....@@@@@@@@@..XX.                  ",
"         .@@@@@@@@@@@@@@@@@..oo.@@@@@@@@@.XXX.                  ",
"         .@@@@@@@@@@@@@@@@@.ooo..@@@@@@@..XXX.                  ",
"         .@@@@@@@@@@@@@@@@@.ooo...@@@@@..XXXX.                  ",
"         .@@@@@@@@@@@@@@@@@.oooo...@@@..XX..X.                  ",
"         .@@@@@@@@@@@@@@@@.oo.oo.XX....XX..XX.                  ",
"         .@@@@@@@@@@@@@@@@.o..oo.XXXXXX....XX.                  ",
"         .@@@@@@@@@@@@@@@@.o.ooo.XXXXXX....X..   .              ",
"         .@@@@@@@@@@@@@@@.oo.oo..XXXXXX.. .X.......             ",
"         .@@@@@@@@@@@@@@@.oo.ooo.XXXXXX.  .XXXXXXX.             ",
"         ..@@@@@@@@@@@@@..o..o..XXXXXXX.  .XXXXXX..             ",
"         ..@@@@@@@@@@@@.......XXXXXXXXX.  ........              ",
"          .@@@@@@@@@@..XXXXXXXXXXXXXXXX.                        ",
"          ...@@@@@@@...XXXXXXXXXXXXXXXX.                        ",
"            ........  .XXXXX.......XXXX......                   ",
"                     .XXXXXX.     .XXXX..XXX.                   ",
"                    ..XXXXXX.     .XXXXXXXXX.                   ",
"                   ..XXXXXXX.     ......XX...                   ",
"                   .XXXXXXX..        ......                     ",
"                   .........                                    ",
"                                                                "
};
