/* XPM */
static char *a39dac7209274c5ebcd4c7b935aa6973JcPMp8xIxMcHlXpn[] = {
/* columns rows colors chars-per-pixel */
"64 64 14 1 ",
"  c black",
". c #2F1414",
"X c #621818",
"o c #7E1A1A",
"O c #622222",
"+ c #3D3756",
"@ c #725A40",
"# c #A50909",
"$ c #852C2C",
"% c #B82727",
"& c #AD4343",
"* c #95744E",
"= c #D84444",
"- c gray97",
/* pixels */
"###  ############XXoooooooooooooooXooooooooooooo#XXX#####++#####",
"#        ######+++++ooooooooooooooXXoooooooooooXXXX#######+#####",
"  *******  ####+Xoo++++++++ooooooooXXoooooXoXXXXX#X######XXXXXX#",
"*    ******   # Xoooooo+++++oooooooXXXXXXXXXXo##XXXXXXXXXXoooooo",
"****     *****    oooooooo+++oooooXXX##########XXooooooooooooooo",
"*********   ****   oooooooo+++oXXXXX##########XXoooooooooooooooo",
" **********   ****  ooooooo+o+++XXX#########XXXooooooooooooooooo",
"#  **********   **** ooXXXX+XXX++#########XXXooooooooooooooooooo",
"#    **********   ***  XXXX+XXX#++#######XXoooooo%%oooooXXXXXXXX",
"  ***  **********  ***  ###+#####+++####XXooooo%%%oooooXX#+#####",
" * *** ***********  *** ###########+++++oXoo%%%%ooooooXX#++#####",
" *  **** *********** **  ####XXXX######o#Xoo%%%oooooXXX#++####oo",
" ***   * ***********  **  XXXoooXX####oooXooo%oooooXX#+++###++o#",
" ***** * ***  *******  **  oooooooXX##o#oXoo%%ooooXX#+++++++#oo#",
"    *****   ********** *** ooooooooXX####Xoo%%oooX+++++######o##",
"     **   ****  ******* **  ooooooooXXX#XXooo%ooXX##+########o##",
"   ***  *  ****  ****** *** #ooooooooooXXXooooooXXXXXXXXXXXXXXXo",
"#  ******* ****   *****  **  #ooooooooooXoooooooXoooooooooooooXo",
"##  *********  ** ****** *** ooooooooooXXoooooooXooooooooooooooo",
"### ***   **  ***** ****  ** XXXoooooooXooooooooXooooooooooooooo",
"XXX# * **    ******  **** **  #XXXXoooXXXXXXXXXXXXoooXXooooooooo",
"#oooo  ***    *****   *** *** ####XXXXXXXoooooooXXXoXXXXXooooooo",
"ooooo#   ** * ******   **  **  ##++##oXoooooooooooXX####XXXooooX",
"ooooo  @  **********   *** **  +++##oooooooooooooooXXX####XXXXXX",
"ooooo  @@   *******   * ** **  ###Xooooooo%%%%ooooo%oXX#########",
"ooooo  *@@@  ***** ****  ** ** ##XXoooooooooo%%oooo%%oXXX#####++",
"ooooX  **@    ********** ** ** #XXoooooooooooo%ooooo%%%oXXX##++#",
"ooXXX  **@ ###  *********** ** #XXooooooooooooooooooooo%%oXXX###",
"ooX##  **@ ####    *******     #oXXXooooXXXXXooooooooooo%%%ooXXX",
"oXX##  *** #######   *****     ####XXXXXXXXXXXXooooooooooo%%oooo",
"XX###  *** ######+##          ##############XXXXXXXXXXXXoooooooo",
"X####  *** #####+####################     #############XXooooooo",
"#####  **  #####+###########           ---   ##########oXXoooooo",
"######    #####++####       ==== ------ -----   #######o#XXooooo",
"#############++++     == --  ===  ---      ----   ######o#XXoooo",
"##########++++## ----- =  -- ====     =====   ==== #####o##XXooo",
"########+++###  ------ ===  ======================    ###o##XX#o",
"######+++###           ==========================  - #  ##o##XX#",
"####++++### -- ===========&&&&&&&&&&&============ --- # ###o####",
"###++++### ---  &&&&&&&&&&&&&&&&&&&&&&&&&&&&&&&&=      # ##o####",
"#++++#### ---   &&&&&&&&&&&&&&&&&&&&&&&&&&&&&&&&&==== =   ##oo##",
"+++##### ---- &&&&&&&&&&&&&&&&&&&&&&&&&&&&&&&&&&&&&&=== -  ###o#",
"++#####       &$$$$$$$$$$$$$$$$$&&&&&&&&&&&&&&&&&&&&=== -  ####o",
"#++###     &&$$$$$$$$$$$$$$$$$$$$$$$$$$$$$$$$&&&&&&&  = -- #####",
"##+## ---- &$$$$$$$$$$$$$$$$$$$$$$$$$$$$$$$$$&&&&&&&      ######",
"##+## --- &$$$$$$OOOOOOOOOOOOOOOOOOO$$$$$$$$$$&&&&&& --- ####+++",
"##++# -- $$$$$$OOOOOOOOOOOOOOOOOOOOOOO$$$$$$$$&&&&&& --- #+++###",
"###+#   $$$$$$OOO   OOO  OOOOOOOOOOOOO$$$$$$$$&&&&&& -- #++#####",
"###+# $$$$$$$OOO  - O  - OOOOOOOOOOOOOO$$$$$$$$&&&&&   ##+######",
"###+# $$$$$$OOO  - -  -- .....   ....OO$$$$$$$----   ###########",
"##+++# $$$$$OO  - -- -- O...  --   ..OO=$$$$$$-   ooo###########",
"##+++# $$$$OO  -- - --- =O  ------ =====$$$$   oooooooooo####o##",
"##+++#      O --  - -- ==  ------- =        ooooooooooooo###ooo#",
"##+++#######                        ###+####oooooooooooooo##oooo",
"###++#######oooo######################++####ooooooooooooooooooo#",
"###++######ooooo###################++++################oooooooo#",
"###++#####oooooo##############++#+++####################ooooooo#",
"###++####ooooo#############++++++++++################oooooooooo#",
"###++###oooo########+++++++++++++#+++#####################oooo##",
"###++##oooo########++++++++++++##+++++###################oooo###",
"###+##ooooo######++++++++++######+++++++#################oooo###",
"#++###oooo####++++###############+++####+++++##########ooooo####",
"++###oooo###++###################+++########+++#######ooooo#####",
"####oooo###++#####################++##########++######oooo######"
};
