/* XPM */
static char *_ba621b3e39c4774f515f674501095864MTOM7cC7HVuCao1[] = {
/* columns rows colors chars-per-pixel */
"32 32 14 1 ",
"  c None",
". c black",
"X c #594C4C",
"o c #595652",
"O c #871F1F",
"+ c #B94E00",
"@ c #B97500",
"# c #E0422F",
"$ c #E08E00",
"% c #E48240",
"& c #F08C47",
"* c #691A87",
"= c #8421AA",
"- c white",
/* pixels */
"                                ",
"                                ",
"           ..                   ",
"        ...$.....               ",
"        .$$$$.$$..              ",
"       ...$$$$$$$$..            ",
"       .$@.$$$...$$.            ",
"       .$@@.$..--.$.            ",
"       .$$....-.-.+.            ",
"       ...  ..-.-.+.            ",
"            ..-.-..             ",
"            .........           ",
"      .......&&&&&&%.           ",
"      .&&&&&&&&&&&.%.           ",
"     ..&&&&&&&&&&..%.           ",
"     ..&&&&&&&&%..%..           ",
"      .%%%%%%%%%.%..            ",
"      .%%%%%%%%....             ",
"       .%%%%%%....              ",
"        ......                  ",
"                                ",
"                                ",
"                                ",
"            .........           ",
"            .##O..###.          ",
"            .#O.###.#..         ",
"           o...##...O#..        ",
"           o..X#..*.#O#..       ",
"           o..X.==*.#OO#.       ",
"           O.=X===*.###.        ",
"            .-O===*.#..         ",
"            .---==*..           "
};
