/* XPM */
static char *_591bccd413e4968a0f7ceb16ed114benF8xKVNxtibh4UJ9[] = {
/* columns rows colors chars-per-pixel */
"64 64 3 1 ",
"  c #4757B8",
". c #5B6EE1",
"X c #639BFF",
/* pixels */
"                XX     XXXXXXXXXX                               ",
"  XXXXXXXXXXXXXXXX XXXXXXXXXXXXXXXXXX       XXXXXXXXXXX.XX      ",
"  XXXXXXXXXXXXXXXX  XXXXXXXXXXXXXXXXXXXXXXXXXXXXXXXXXXX.XXX     ",
"  XXXXXXXXXXXXXXXX  .XXXXXXXXXXXXXXXXXXXX....XXXXXXXXX.XXXXXX   ",
"  XXXXXXXXXXXXXXXX.  XXXXXXXXX..............XXXXXXXXXX.XXXXXX   ",
"  X.......XXXXXXXX.   XXXXXXX.....XX....XXXXXXXXXXXXXX. XXXXX   ",
"  XXXX....XXXXXXXX.   XXXXXXXXX.....XXXXXXXXXXXXXXXXXX  XXXXX   ",
" XXX......XXXXXXXX.  X XXX.....XX..................XXX XXXXXX   ",
"  X....XXXXXXXXXXXX  X XXX....................XXXXXXXX XXXXXX   ",
"X XXXXXXXXXXXXXXXXX  X XXXXXXXXXXXXXX.XXXXXXXXXXXXXXXX XXXXXX   ",
"  XXXXXXXXXXXXXXXXX  XX XXXXXXXXXXX.........XXXXXXXXXX XXXXXXX  ",
" XXXXXXXX       XXXX XX XXXXX.......X.XXXXXX..........    XXX.  ",
" XXXX    XXXXXXX     .. .....XXXXX .XXXXXXXXXXX              .  ",
"     .............XX.     XXXXXXX              XXXXXXXXXXX   X  ",
" XXXXXXXXXXXXXXXXXXXXXXX X  XXXXXX .XX............XXXXXXXXXXXXX ",
" XXXXXXXXXXXXXXXXXXXXXXXXXXXXXXXXX .XXXXXXXX...........XXXXXXXX ",
" XXXXXXXXXXXXXXXXXXXXXXXXXXXXXXXXX .XXX.........XXX.....XXXXXXX ",
" XXXXXXXXXXXXXXX............XXXXXXX XXX................XXXX..X  ",
" XXXXXXXX............XXXXXX....XXXX XXXXXXXXXX..............XX  ",
" XXXX..................XXXX....XXXX ..................XXXXXXXX  ",
" XXX...X.........XX...X......XXXXX  XXXXXX.............XXXXXXXX ",
" XXXXXXX.....X.....XXX..XXXXXXXXXX  XXXX......................X ",
" XXXXXX...X...................XXXX  XXXXXXXXXXX...............X ",
" XXXXXXXXXXXXX.................XXXX XXXXXXXXXXXX............... ",
" XXXXXXXX..................XXXXX... ....          .........XXXX ",
" XXXX....XXX.....XXXXXXXXXXXXX      .X  XXXXX. X..        XXXX  ",
" XXXX..XXXXXXXXXXXXXXXXXXXX    ...  XXXXXXXXX.. XXXXXX....      ",
" XXXXXXXXXXXXXXXXXXXX        ....XX.XXXXXXXXXX. XXXXXXXXXXXXX.. ",
"X X...........            ..XXXXXXX.XXXXXXXXXX. XXXXXXXXXXXXXX  ",
". .           ... X     XXXXXXXXXXXXXXXXXXXXXX. XXXXXXXXXXXXXX  ",
". ......XXXXXXXX    XXXXXXXXXXXXXXXXXXXXXXXXXX.X XXXXXXXXXXXXX  ",
"X XXXXXXXXXXXXXX .XXXXXXXXXX............XXXXXXX. XXXXXXXXXXXXX  ",
"X XXXXX.XXXXXXXX .XXXXXX.............XXXXXXXXXX. XXXXXXXXXXXXX  ",
"  XX....XXXXXXXX .XXX.................XXXXXXXX.. XXXXXXXXXXXXX  ",
" X..XXX..XXXXXXX XXXXXXXXX....XXXXXXX.XXXXXXXX.. XXXXXXXXXXXXX  ",
" X.......XXXXXXX XXXXXXXXXX.X..........XXXXXX.XX. XXXXXXXXX.    ",
" X...XX.X.XXXXXX XXXX................XXXXXXX..... ...       XX  ",
" X.......XXXXXXX XXX...XX..XXXXXX...X   ....XXX      XXXXXXXXX  ",
" XXX...XXXXXXXXX.XXX...XXXXXX....    XXXXX......X XXXXXXXXXXXX  ",
" XXXXXXXXXXXXXXX.XX..X......     XXXXX....XXXXXXXXXXXXXXXXXXXX  ",
" XXXXXXXXXXXXXXX.XX....XXXX XXXXX.....XXXXXXXXXXXXXXXXXXXXXXXX  ",
" XXXXXXXXXXXXXXXX.XXXXXXXX.......XXXXXXXXXXXXXXXXX....XXXXXXXX  ",
"XXXXXXXXXX......X.          XXXXXXXXXXXXXXXXXXXXX.........XXX   ",
". ...             .......X .XXXXXXXXXXXXXXX...........XX..XXX   ",
"  XXX      XXXXXXXXXXXXXXX .XXX......XXXXXXXXXXXXXXX....XXXXX   ",
" XXXXXXXXXXXXXXXXXXXXXXXXX .X..XX...XXXXXXXX...............XX   ",
" XXXXXXXXX...XXXXXXXXXXXXX  .X.....XXXXX...................XX   ",
". ..........XXXXXXXXXXXXXX  .XXXXX.......XXXXXXXXXXXXXXXXXXXXX  ",
"  XXXXX..............XXXXXX  XXX....X...XXXXXXXXXXXXXXXXXXXXXX  ",
" XXXXXXXXX..........XXXXXXX  XXX......XXX.XXXXXXXXXXXXXXXXXXXX  ",
"XX XXXX...X..XXXXXXXXXXXXXX  XXXX.............XXXXXX..........  ",
"XXXXX........XXXXXXXXXXXXXX  XXXXXXXXXXXXXXXX.... ..XXXXXXXXXX  ",
"XXXXX................XXXXXXX XXXXXXXXXXX.....XXX  XXXX          ",
"XXXXXXX.................XXXX .XXXXXX....XXX    X      XXXXXXXX  ",
"XXXXX.................XXXXXX .                    XXXXXXXXXXXX  ",
"XXXXXX.........XXXXXXXXXX     XXXXXXX    XXXXXXX. XXXXXXXXXXXX  ",
"XXXXXXXXXXXX  X           ....XXXXX  XXXXXXXXXXX. XXXXXXXXXXXXX ",
" .          X            .XXXXXXXXX XXXXXXXXXXXX XXXXXXXXXXX... ",
"XXX..                 XXXXXXXXXXXXXXXXXXXXXXXXXX XXXXXXX......X ",
"X               XXXXXXXXXXXXX....XXXXXXXXXXXXXXX XXXXXXX....XXX ",
" XXX XXXXXXX.................XX............XXXXX XXXX...   ..XX ",
" XXXXX................................XXXXXXXXXX XXXXXX      XX ",
"X XXX   X.............          .....XXXXXXXXXXX X  XXXX      X ",
"             ...                      X                         "
};
